<svg xmlns="http://www.w3.org/2000/svg" width="1024" height="1024" viewBox="0 0 1024 1024">
  <defs>
    <linearGradient id="bg" x1="0" y1="0" x2="1" y2="1">
      <stop offset="0" stop-color="#0F172A"/>
      <stop offset="0.45" stop-color="#1E293B"/>
      <stop offset="1" stop-color="#111827"/>
    </linearGradient>
    <linearGradient id="faceA" x1="0" y1="0" x2="1" y2="1">
      <stop offset="0" stop-color="#38BDF8"/>
      <stop offset="1" stop-color="#2563EB"/>
    </linearGradient>
    <linearGradient id="faceB" x1="0" y1="1" x2="1" y2="0">
      <stop offset="0" stop-color="#22C55E"/>
      <stop offset="1" stop-color="#16A34A"/>
    </linearGradient>
    <linearGradient id="faceC" x1="0" y1="0" x2="1" y2="1">
      <stop offset="0" stop-color="#FACC15"/>
      <stop offset="1" stop-color="#F97316"/>
    </linearGradient>
    <radialGradient id="glow" cx="0.5" cy="0.2" r="0.7">
      <stop offset="0" stop-color="#FFFFFF" stop-opacity="0.5"/>
      <stop offset="1" stop-color="#FFFFFF" stop-opacity="0"/>
    </radialGradient>
  </defs>
  <rect x="64" y="64" width="896" height="896" rx="200" fill="url(#bg)"/>
  <rect x="64" y="64" width="896" height="896" rx="200" fill="url(#glow)"/>
  <g transform="translate(512 520)">
    <path d="M0 -270 L250 -120 L0 20 L-250 -120 Z" fill="url(#faceA)"/>
    <path d="M0 20 L250 -120 L250 170 L0 320 Z" fill="url(#faceB)"/>
    <path d="M0 20 L-250 -120 L-250 170 L0 320 Z" fill="url(#faceC)"/>
    <path d="M0 -270 L250 -120 L250 -80 L0 60 L-250 -80 L-250 -120 Z" fill="#FFFFFF" opacity="0.2"/>
  </g>
</svg>
